<svg xmlns="http://www.w3.org/2000/svg" viewBox="0 0 880 650" width="880" height="650" role="img" aria-labelledby="t d">
<title id="t">How many times slower than native Go</title>
<desc id="d">Apple M1 Pro, darwin/arm64. Median time of each workload divided by Go&#39;s; log scale, shorter is better.</desc>
<style>
text { font-family: system-ui, -apple-system, "Segoe UI", sans-serif; }
.bg { fill: #fcfcfb; }
.title { fill: #0b0b0b; font-size: 16px; font-weight: 600; }
.sub { fill: #52514e; font-size: 12px; }
.label { fill: #0b0b0b; font-size: 12px; }
.value { fill: #52514e; font-size: 11px; font-variant-numeric: tabular-nums; }
.tick { fill: #898781; font-size: 11px; font-variant-numeric: tabular-nums; }
.grid { stroke: #e1e0d9; stroke-width: 1; }
.base { stroke: #c3c2b7; stroke-width: 1; }
.s0 { fill: #2a78d6; } .s1 { fill: #eb6834; } .s2 { fill: #1baf7a; }
@media (prefers-color-scheme: dark) {
  .bg { fill: #1a1a19; }
  .title, .label { fill: #ffffff; }
  .sub, .value { fill: #c3c2b7; }
  .grid { stroke: #2c2c2a; }
  .base { stroke: #383835; }
  .s0 { fill: #3987e5; } .s1 { fill: #d95926; } .s2 { fill: #199e70; }
}
</style>
<rect class="bg" width="880" height="650" rx="8"/>
<text class="title" x="24" y="32">How many times slower than native Go</text>
<text class="sub" x="24" y="52">Apple M1 Pro, darwin/arm64. Median time of each workload divided by Go&#39;s; log scale, shorter is better.</text>
<rect class="s0" x="24" y="70" width="12" height="12" rx="2"/><text class="label" x="42" y="80">Luart (no JIT)</text>
<rect class="s1" x="162.39999999999998" y="70" width="12" height="12" rx="2"/><text class="label" x="180.39999999999998" y="80">Luart (JIT)</text>
<rect class="s2" x="281" y="70" width="12" height="12" rx="2"/><text class="label" x="299" y="80">go-lua</text>
<line class="base" x1="220.0" x2="220.0" y1="98" y2="612"/><text class="tick" x="220.0" y="630" text-anchor="middle">1×</text>
<line class="grid" x1="286.5" x2="286.5" y1="98" y2="612"/><text class="tick" x="286.5" y="630" text-anchor="middle">2×</text>
<line class="grid" x1="374.4" x2="374.4" y1="98" y2="612"/><text class="tick" x="374.4" y="630" text-anchor="middle">5×</text>
<line class="grid" x1="440.8" x2="440.8" y1="98" y2="612"/><text class="tick" x="440.8" y="630" text-anchor="middle">10×</text>
<line class="grid" x1="507.3" x2="507.3" y1="98" y2="612"/><text class="tick" x="507.3" y="630" text-anchor="middle">20×</text>
<line class="grid" x1="595.2" x2="595.2" y1="98" y2="612"/><text class="tick" x="595.2" y="630" text-anchor="middle">50×</text>
<line class="grid" x1="661.6" x2="661.6" y1="98" y2="612"/><text class="tick" x="661.6" y="630" text-anchor="middle">100×</text>
<line class="grid" x1="728.1" x2="728.1" y1="98" y2="612"/><text class="tick" x="728.1" y="630" text-anchor="middle">200×</text>
<line class="grid" x1="816.0" x2="816.0" y1="98" y2="612"/><text class="tick" x="816.0" y="630" text-anchor="middle">500×</text>
<text class="label" x="208" y="121.0" text-anchor="end" dominant-baseline="middle">fib(25), recursive calls</text>
<path class="s0" d="M220.0 104.0H547.9Q551.9 104.0 551.9 108.0V110.0Q551.9 114.0 547.9 114.0H220.0Z"><title>Luart (no JIT): 32× slower</title></path><text class="value" x="556.9" y="109.0" text-anchor="start" dominant-baseline="middle">32×</text>
<path class="s1" d="M220.0 116.0H443.8Q447.8 116.0 447.8 120.0V122.0Q447.8 126.0 443.8 126.0H220.0Z"><title>Luart (JIT): 11× slower</title></path><text class="value" x="452.8" y="121.0" text-anchor="start" dominant-baseline="middle">11×</text>
<path class="s2" d="M220.0 128.0H600.6Q604.6 128.0 604.6 132.0V134.0Q604.6 138.0 600.6 138.0H220.0Z"><title>go-lua: 55× slower</title></path><text class="value" x="609.6" y="133.0" text-anchor="start" dominant-baseline="middle">55×</text>
<text class="label" x="208" y="173.0" text-anchor="end" dominant-baseline="middle">numeric loop, 1M iterations</text>
<path class="s0" d="M220.0 156.0H451.9Q455.9 156.0 455.9 160.0V162.0Q455.9 166.0 451.9 166.0H220.0Z"><title>Luart (no JIT): 12× slower</title></path><text class="value" x="460.9" y="161.0" text-anchor="start" dominant-baseline="middle">12×</text>
<path class="s1" d="M220.0 168.0H256.4Q260.4 168.0 260.4 172.0V174.0Q260.4 178.0 256.4 178.0H220.0Z"><title>Luart (JIT): 1.5× slower</title></path><text class="value" x="265.4" y="173.0" text-anchor="start" dominant-baseline="middle">1.5×</text>
<path class="s2" d="M220.0 180.0H743.7Q747.7 180.0 747.7 184.0V186.0Q747.7 190.0 743.7 190.0H220.0Z"><title>go-lua: 245× slower</title></path><text class="value" x="752.7" y="185.0" text-anchor="start" dominant-baseline="middle">245×</text>
<text class="label" x="208" y="225.0" text-anchor="end" dominant-baseline="middle">array fill and sum, 100k</text>
<path class="s0" d="M220.0 208.0H425.4Q429.4 208.0 429.4 212.0V214.0Q429.4 218.0 425.4 218.0H220.0Z"><title>Luart (no JIT): 8.9× slower</title></path><text class="value" x="434.4" y="213.0" text-anchor="start" dominant-baseline="middle">8.9×</text>
<path class="s1" d="M220.0 220.0H338.3Q342.3 220.0 342.3 224.0V226.0Q342.3 230.0 338.3 230.0H220.0Z"><title>Luart (JIT): 3.6× slower</title></path><text class="value" x="347.3" y="225.0" text-anchor="start" dominant-baseline="middle">3.6×</text>
<path class="s2" d="M220.0 232.0H496.4Q500.4 232.0 500.4 236.0V238.0Q500.4 242.0 496.4 242.0H220.0Z"><title>go-lua: 19× slower</title></path><text class="value" x="505.4" y="237.0" text-anchor="start" dominant-baseline="middle">19×</text>
<text class="label" x="208" y="277.0" text-anchor="end" dominant-baseline="middle">records, 10k tables</text>
<path class="s0" d="M220.0 260.0H439.2Q443.2 260.0 443.2 264.0V266.0Q443.2 270.0 439.2 270.0H220.0Z"><title>Luart (no JIT): 10× slower</title></path><text class="value" x="448.2" y="265.0" text-anchor="start" dominant-baseline="middle">10×</text>
<path class="s1" d="M220.0 272.0H423.6Q427.6 272.0 427.6 276.0V278.0Q427.6 282.0 423.6 282.0H220.0Z"><title>Luart (JIT): 8.7× slower</title></path><text class="value" x="432.6" y="277.0" text-anchor="start" dominant-baseline="middle">8.7×</text>
<path class="s2" d="M220.0 284.0H553.5Q557.5 284.0 557.5 288.0V290.0Q557.5 294.0 553.5 294.0H220.0Z"><title>go-lua: 34× slower</title></path><text class="value" x="562.5" y="289.0" text-anchor="start" dominant-baseline="middle">34×</text>
<text class="label" x="208" y="329.0" text-anchor="end" dominant-baseline="middle">closures, 100k</text>
<path class="s0" d="M220.0 312.0H514.0Q518.0 312.0 518.0 316.0V318.0Q518.0 322.0 514.0 322.0H220.0Z"><title>Luart (no JIT): 22× slower</title></path><text class="value" x="523.0" y="317.0" text-anchor="start" dominant-baseline="middle">22×</text>
<path class="s1" d="M220.0 324.0H533.5Q537.5 324.0 537.5 328.0V330.0Q537.5 334.0 533.5 334.0H220.0Z"><title>Luart (JIT): 27× slower</title></path><text class="value" x="542.5" y="329.0" text-anchor="start" dominant-baseline="middle">27×</text>
<path class="s2" d="M220.0 336.0H567.5Q571.5 336.0 571.5 340.0V342.0Q571.5 346.0 567.5 346.0H220.0Z"><title>go-lua: 39× slower</title></path><text class="value" x="576.5" y="341.0" text-anchor="start" dominant-baseline="middle">39×</text>
<text class="label" x="208" y="381.0" text-anchor="end" dominant-baseline="middle">sort 10k with comparator</text>
<path class="s0" d="M220.0 364.0H344.3Q348.3 364.0 348.3 368.0V370.0Q348.3 374.0 344.3 374.0H220.0Z"><title>Luart (no JIT): 3.8× slower</title></path><text class="value" x="353.3" y="369.0" text-anchor="start" dominant-baseline="middle">3.8×</text>
<path class="s1" d="M220.0 376.0H368.3Q372.3 376.0 372.3 380.0V382.0Q372.3 386.0 368.3 386.0H220.0Z"><title>Luart (JIT): 4.9× slower</title></path><text class="value" x="377.3" y="381.0" text-anchor="start" dominant-baseline="middle">4.9×</text>
<path class="s2" d="M220.0 388.0H405.1Q409.1 388.0 409.1 392.0V394.0Q409.1 398.0 405.1 398.0H220.0Z"><title>go-lua: 7.2× slower</title></path><text class="value" x="414.1" y="393.0" text-anchor="start" dominant-baseline="middle">7.2×</text>
<text class="label" x="208" y="433.0" text-anchor="end" dominant-baseline="middle">string build, 10k pieces</text>
<path class="s0" d="M220.0 416.0H274.0Q278.0 416.0 278.0 420.0V422.0Q278.0 426.0 274.0 426.0H220.0Z"><title>Luart (no JIT): 1.8× slower</title></path><text class="value" x="283.0" y="421.0" text-anchor="start" dominant-baseline="middle">1.8×</text>
<path class="s1" d="M220.0 428.0H269.6Q273.6 428.0 273.6 432.0V434.0Q273.6 438.0 269.6 438.0H220.0Z"><title>Luart (JIT): 1.7× slower</title></path><text class="value" x="278.6" y="433.0" text-anchor="start" dominant-baseline="middle">1.7×</text>
<path class="s2" d="M220.0 440.0H705.5Q709.5 440.0 709.5 444.0V446.0Q709.5 450.0 705.5 450.0H220.0Z"><title>go-lua: 165× slower</title></path><text class="value" x="714.5" y="445.0" text-anchor="start" dominant-baseline="middle">165×</text>
<text class="label" x="208" y="485.0" text-anchor="end" dominant-baseline="middle">calls into Go, 100k</text>
<path class="s0" d="M220.0 468.0H414.4Q418.4 468.0 418.4 472.0V474.0Q418.4 478.0 414.4 478.0H220.0Z"><title>Luart (no JIT): 7.9× slower</title></path><text class="value" x="423.4" y="473.0" text-anchor="start" dominant-baseline="middle">7.9×</text>
<path class="s1" d="M220.0 480.0H428.8Q432.8 480.0 432.8 484.0V486.0Q432.8 490.0 428.8 490.0H220.0Z"><title>Luart (JIT): 9.2× slower</title></path><text class="value" x="437.8" y="485.0" text-anchor="start" dominant-baseline="middle">9.2×</text>
<path class="s2" d="M220.0 492.0H512.3Q516.3 492.0 516.3 496.0V498.0Q516.3 502.0 512.3 502.0H220.0Z"><title>go-lua: 22× slower</title></path><text class="value" x="521.3" y="497.0" text-anchor="start" dominant-baseline="middle">22×</text>
<text class="label" x="208" y="537.0" text-anchor="end" dominant-baseline="middle">plasma frame</text>
<path class="s0" d="M220.0 520.0H405.1Q409.1 520.0 409.1 524.0V526.0Q409.1 530.0 405.1 530.0H220.0Z"><title>Luart (no JIT): 7.2× slower</title></path><text class="value" x="414.1" y="525.0" text-anchor="start" dominant-baseline="middle">7.2×</text>
<path class="s1" d="M220.0 532.0H378.7Q382.7 532.0 382.7 536.0V538.0Q382.7 542.0 378.7 542.0H220.0Z"><title>Luart (JIT): 5.5× slower</title></path><text class="value" x="387.7" y="537.0" text-anchor="start" dominant-baseline="middle">5.5×</text>
<path class="s2" d="M220.0 544.0H496.8Q500.8 544.0 500.8 548.0V550.0Q500.8 554.0 496.8 554.0H220.0Z"><title>go-lua: 19× slower</title></path><text class="value" x="505.8" y="549.0" text-anchor="start" dominant-baseline="middle">19×</text>
<text class="label" x="208" y="589.0" text-anchor="end" dominant-baseline="middle">particles frame</text>
<path class="s0" d="M220.0 572.0H610.7Q614.7 572.0 614.7 576.0V578.0Q614.7 582.0 610.7 582.0H220.0Z"><title>Luart (no JIT): 61× slower</title></path><text class="value" x="619.7" y="577.0" text-anchor="start" dominant-baseline="middle">61×</text>
<path class="s1" d="M220.0 584.0H564.5Q568.5 584.0 568.5 588.0V590.0Q568.5 594.0 564.5 594.0H220.0Z"><title>Luart (JIT): 38× slower</title></path><text class="value" x="573.5" y="589.0" text-anchor="start" dominant-baseline="middle">38×</text>
<path class="s2" d="M220.0 596.0H753.0Q757.0 596.0 757.0 600.0V602.0Q757.0 606.0 753.0 606.0H220.0Z"><title>go-lua: 270× slower</title></path><text class="value" x="762.0" y="601.0" text-anchor="start" dominant-baseline="middle">270×</text>
</svg>
