<svg xmlns="http://www.w3.org/2000/svg" viewBox="0 0 880 650" width="880" height="650" role="img" aria-labelledby="t d">
<title id="t">How many times slower than native Go</title>
<desc id="d">AMD Ryzen 9 9900X3D 12-Core Processor, linux/amd64. Median time of each workload divided by Go&#39;s; log scale, shorter is better.</desc>
<style>
text { font-family: system-ui, -apple-system, "Segoe UI", sans-serif; }
.bg { fill: #fcfcfb; }
.title { fill: #0b0b0b; font-size: 16px; font-weight: 600; }
.sub { fill: #52514e; font-size: 12px; }
.label { fill: #0b0b0b; font-size: 12px; }
.value { fill: #52514e; font-size: 11px; font-variant-numeric: tabular-nums; }
.tick { fill: #898781; font-size: 11px; font-variant-numeric: tabular-nums; }
.grid { stroke: #e1e0d9; stroke-width: 1; }
.base { stroke: #c3c2b7; stroke-width: 1; }
.s0 { fill: #2a78d6; } .s1 { fill: #eb6834; } .s2 { fill: #1baf7a; }
@media (prefers-color-scheme: dark) {
  .bg { fill: #1a1a19; }
  .title, .label { fill: #ffffff; }
  .sub, .value { fill: #c3c2b7; }
  .grid { stroke: #2c2c2a; }
  .base { stroke: #383835; }
  .s0 { fill: #3987e5; } .s1 { fill: #d95926; } .s2 { fill: #199e70; }
}
</style>
<rect class="bg" width="880" height="650" rx="8"/>
<text class="title" x="24" y="32">How many times slower than native Go</text>
<text class="sub" x="24" y="52">AMD Ryzen 9 9900X3D 12-Core Processor, linux/amd64. Median time of each workload divided by Go&#39;s; log scale, shorter is better.</text>
<rect class="s0" x="24" y="70" width="12" height="12" rx="2"/><text class="label" x="42" y="80">Luart (no JIT)</text>
<rect class="s1" x="162.39999999999998" y="70" width="12" height="12" rx="2"/><text class="label" x="180.39999999999998" y="80">Luart (JIT)</text>
<rect class="s2" x="281" y="70" width="12" height="12" rx="2"/><text class="label" x="299" y="80">go-lua</text>
<line class="base" x1="220.0" x2="220.0" y1="98" y2="612"/><text class="tick" x="220.0" y="630" text-anchor="middle">1×</text>
<line class="grid" x1="286.5" x2="286.5" y1="98" y2="612"/><text class="tick" x="286.5" y="630" text-anchor="middle">2×</text>
<line class="grid" x1="374.4" x2="374.4" y1="98" y2="612"/><text class="tick" x="374.4" y="630" text-anchor="middle">5×</text>
<line class="grid" x1="440.8" x2="440.8" y1="98" y2="612"/><text class="tick" x="440.8" y="630" text-anchor="middle">10×</text>
<line class="grid" x1="507.3" x2="507.3" y1="98" y2="612"/><text class="tick" x="507.3" y="630" text-anchor="middle">20×</text>
<line class="grid" x1="595.2" x2="595.2" y1="98" y2="612"/><text class="tick" x="595.2" y="630" text-anchor="middle">50×</text>
<line class="grid" x1="661.6" x2="661.6" y1="98" y2="612"/><text class="tick" x="661.6" y="630" text-anchor="middle">100×</text>
<line class="grid" x1="728.1" x2="728.1" y1="98" y2="612"/><text class="tick" x="728.1" y="630" text-anchor="middle">200×</text>
<line class="grid" x1="816.0" x2="816.0" y1="98" y2="612"/><text class="tick" x="816.0" y="630" text-anchor="middle">500×</text>
<text class="label" x="208" y="121.0" text-anchor="end" dominant-baseline="middle">fib(25), recursive calls</text>
<path class="s0" d="M220.0 104.0H526.3Q530.3 104.0 530.3 108.0V110.0Q530.3 114.0 526.3 114.0H220.0Z"><title>Luart (no JIT): 25× slower</title></path><text class="value" x="535.3" y="109.0" text-anchor="start" dominant-baseline="middle">25×</text>
<path class="s1" d="M220.0 116.0H405.2Q409.2 116.0 409.2 120.0V122.0Q409.2 126.0 405.2 126.0H220.0Z"><title>Luart (JIT): 7.2× slower</title></path><text class="value" x="414.2" y="121.0" text-anchor="start" dominant-baseline="middle">7.2×</text>
<path class="s2" d="M220.0 128.0H574.1Q578.1 128.0 578.1 132.0V134.0Q578.1 138.0 574.1 138.0H220.0Z"><title>go-lua: 42× slower</title></path><text class="value" x="583.1" y="133.0" text-anchor="start" dominant-baseline="middle">42×</text>
<text class="label" x="208" y="173.0" text-anchor="end" dominant-baseline="middle">numeric loop, 1M iterations</text>
<path class="s0" d="M220.0 156.0H444.6Q448.6 156.0 448.6 160.0V162.0Q448.6 166.0 444.6 166.0H220.0Z"><title>Luart (no JIT): 11× slower</title></path><text class="value" x="453.6" y="161.0" text-anchor="start" dominant-baseline="middle">11×</text>
<path class="s1" d="M220.0 168.0H238.5Q242.5 168.0 242.5 172.0V174.0Q242.5 178.0 238.5 178.0H220.0Z"><title>Luart (JIT): 1.3× slower</title></path><text class="value" x="247.5" y="173.0" text-anchor="start" dominant-baseline="middle">1.3×</text>
<path class="s2" d="M220.0 180.0H742.5Q746.5 180.0 746.5 184.0V186.0Q746.5 190.0 742.5 190.0H220.0Z"><title>go-lua: 242× slower</title></path><text class="value" x="751.5" y="185.0" text-anchor="start" dominant-baseline="middle">242×</text>
<text class="label" x="208" y="225.0" text-anchor="end" dominant-baseline="middle">array fill and sum, 100k</text>
<path class="s0" d="M220.0 208.0H377.6Q381.6 208.0 381.6 212.0V214.0Q381.6 218.0 377.6 218.0H220.0Z"><title>Luart (no JIT): 5.4× slower</title></path><text class="value" x="386.6" y="213.0" text-anchor="start" dominant-baseline="middle">5.4×</text>
<path class="s1" d="M220.0 220.0H294.0Q298.0 220.0 298.0 224.0V226.0Q298.0 230.0 294.0 230.0H220.0Z"><title>Luart (JIT): 2.3× slower</title></path><text class="value" x="303.0" y="225.0" text-anchor="start" dominant-baseline="middle">2.3×</text>
<path class="s2" d="M220.0 232.0H461.6Q465.6 232.0 465.6 236.0V238.0Q465.6 242.0 461.6 242.0H220.0Z"><title>go-lua: 13× slower</title></path><text class="value" x="470.6" y="237.0" text-anchor="start" dominant-baseline="middle">13×</text>
<text class="label" x="208" y="277.0" text-anchor="end" dominant-baseline="middle">records, 10k tables</text>
<path class="s0" d="M220.0 260.0H434.4Q438.4 260.0 438.4 264.0V266.0Q438.4 270.0 434.4 270.0H220.0Z"><title>Luart (no JIT): 9.7× slower</title></path><text class="value" x="443.4" y="265.0" text-anchor="start" dominant-baseline="middle">9.7×</text>
<path class="s1" d="M220.0 272.0H407.2Q411.2 272.0 411.2 276.0V278.0Q411.2 282.0 407.2 282.0H220.0Z"><title>Luart (JIT): 7.3× slower</title></path><text class="value" x="416.2" y="277.0" text-anchor="start" dominant-baseline="middle">7.3×</text>
<path class="s2" d="M220.0 284.0H552.5Q556.5 284.0 556.5 288.0V290.0Q556.5 294.0 552.5 294.0H220.0Z"><title>go-lua: 33× slower</title></path><text class="value" x="561.5" y="289.0" text-anchor="start" dominant-baseline="middle">33×</text>
<text class="label" x="208" y="329.0" text-anchor="end" dominant-baseline="middle">closures, 100k</text>
<path class="s0" d="M220.0 312.0H521.2Q525.2 312.0 525.2 316.0V318.0Q525.2 322.0 521.2 322.0H220.0Z"><title>Luart (no JIT): 24× slower</title></path><text class="value" x="530.2" y="317.0" text-anchor="start" dominant-baseline="middle">24×</text>
<path class="s1" d="M220.0 324.0H507.7Q511.7 324.0 511.7 328.0V330.0Q511.7 334.0 507.7 334.0H220.0Z"><title>Luart (JIT): 21× slower</title></path><text class="value" x="516.7" y="329.0" text-anchor="start" dominant-baseline="middle">21×</text>
<path class="s2" d="M220.0 336.0H577.6Q581.6 336.0 581.6 340.0V342.0Q581.6 346.0 577.6 346.0H220.0Z"><title>go-lua: 43× slower</title></path><text class="value" x="586.6" y="341.0" text-anchor="start" dominant-baseline="middle">43×</text>
<text class="label" x="208" y="381.0" text-anchor="end" dominant-baseline="middle">sort 10k with comparator</text>
<path class="s0" d="M220.0 364.0H316.0Q320.0 364.0 320.0 368.0V370.0Q320.0 374.0 316.0 374.0H220.0Z"><title>Luart (no JIT): 2.8× slower</title></path><text class="value" x="325.0" y="369.0" text-anchor="start" dominant-baseline="middle">2.8×</text>
<path class="s1" d="M220.0 376.0H313.8Q317.8 376.0 317.8 380.0V382.0Q317.8 386.0 313.8 386.0H220.0Z"><title>Luart (JIT): 2.8× slower</title></path><text class="value" x="322.8" y="381.0" text-anchor="start" dominant-baseline="middle">2.8×</text>
<path class="s2" d="M220.0 388.0H410.5Q414.5 388.0 414.5 392.0V394.0Q414.5 398.0 410.5 398.0H220.0Z"><title>go-lua: 7.6× slower</title></path><text class="value" x="419.5" y="393.0" text-anchor="start" dominant-baseline="middle">7.6×</text>
<text class="label" x="208" y="433.0" text-anchor="end" dominant-baseline="middle">string build, 10k pieces</text>
<path class="s0" d="M220.0 416.0H279.6Q283.6 416.0 283.6 420.0V422.0Q283.6 426.0 279.6 426.0H220.0Z"><title>Luart (no JIT): 1.9× slower</title></path><text class="value" x="288.6" y="421.0" text-anchor="start" dominant-baseline="middle">1.9×</text>
<path class="s1" d="M220.0 428.0H262.3Q266.3 428.0 266.3 432.0V434.0Q266.3 438.0 262.3 438.0H220.0Z"><title>Luart (JIT): 1.6× slower</title></path><text class="value" x="271.3" y="433.0" text-anchor="start" dominant-baseline="middle">1.6×</text>
<path class="s2" d="M220.0 440.0H703.3Q707.3 440.0 707.3 444.0V446.0Q707.3 450.0 703.3 450.0H220.0Z"><title>go-lua: 161× slower</title></path><text class="value" x="712.3" y="445.0" text-anchor="start" dominant-baseline="middle">161×</text>
<text class="label" x="208" y="485.0" text-anchor="end" dominant-baseline="middle">calls into Go, 100k</text>
<path class="s0" d="M220.0 468.0H412.4Q416.4 468.0 416.4 472.0V474.0Q416.4 478.0 412.4 478.0H220.0Z"><title>Luart (no JIT): 7.7× slower</title></path><text class="value" x="421.4" y="473.0" text-anchor="start" dominant-baseline="middle">7.7×</text>
<path class="s1" d="M220.0 480.0H383.0Q387.0 480.0 387.0 484.0V486.0Q387.0 490.0 383.0 490.0H220.0Z"><title>Luart (JIT): 5.7× slower</title></path><text class="value" x="392.0" y="485.0" text-anchor="start" dominant-baseline="middle">5.7×</text>
<path class="s2" d="M220.0 492.0H523.0Q527.0 492.0 527.0 496.0V498.0Q527.0 502.0 523.0 502.0H220.0Z"><title>go-lua: 25× slower</title></path><text class="value" x="532.0" y="497.0" text-anchor="start" dominant-baseline="middle">25×</text>
<text class="label" x="208" y="537.0" text-anchor="end" dominant-baseline="middle">plasma frame</text>
<path class="s0" d="M220.0 520.0H362.8Q366.8 520.0 366.8 524.0V526.0Q366.8 530.0 362.8 530.0H220.0Z"><title>Luart (no JIT): 4.6× slower</title></path><text class="value" x="371.8" y="525.0" text-anchor="start" dominant-baseline="middle">4.6×</text>
<path class="s1" d="M220.0 532.0H305.6Q309.6 532.0 309.6 536.0V538.0Q309.6 542.0 305.6 542.0H220.0Z"><title>Luart (JIT): 2.5× slower</title></path><text class="value" x="314.6" y="537.0" text-anchor="start" dominant-baseline="middle">2.5×</text>
<path class="s2" d="M220.0 544.0H470.7Q474.7 544.0 474.7 548.0V550.0Q474.7 554.0 470.7 554.0H220.0Z"><title>go-lua: 14× slower</title></path><text class="value" x="479.7" y="549.0" text-anchor="start" dominant-baseline="middle">14×</text>
<text class="label" x="208" y="589.0" text-anchor="end" dominant-baseline="middle">particles frame</text>
<path class="s0" d="M220.0 572.0H589.0Q593.0 572.0 593.0 576.0V578.0Q593.0 582.0 589.0 582.0H220.0Z"><title>Luart (no JIT): 49× slower</title></path><text class="value" x="598.0" y="577.0" text-anchor="start" dominant-baseline="middle">49×</text>
<path class="s1" d="M220.0 584.0H497.3Q501.3 584.0 501.3 588.0V590.0Q501.3 594.0 497.3 594.0H220.0Z"><title>Luart (JIT): 19× slower</title></path><text class="value" x="506.3" y="589.0" text-anchor="start" dominant-baseline="middle">19×</text>
<path class="s2" d="M220.0 596.0H737.6Q741.6 596.0 741.6 600.0V602.0Q741.6 606.0 737.6 606.0H220.0Z"><title>go-lua: 230× slower</title></path><text class="value" x="746.6" y="601.0" text-anchor="start" dominant-baseline="middle">230×</text>
</svg>
