<svg xmlns="http://www.w3.org/2000/svg" viewBox="0 0 880 650" width="880" height="650" role="img" aria-labelledby="t d">
<title id="t">How many times slower than native Go</title>
<desc id="d">AMD Ryzen 9 9900X3D 12-Core Processor, linux/amd64. Median time of each workload divided by Go&#39;s; log scale, shorter is better.</desc>
<style>
text { font-family: system-ui, -apple-system, "Segoe UI", sans-serif; }
.bg { fill: #fcfcfb; }
.title { fill: #0b0b0b; font-size: 16px; font-weight: 600; }
.sub { fill: #52514e; font-size: 12px; }
.label { fill: #0b0b0b; font-size: 12px; }
.value { fill: #52514e; font-size: 11px; font-variant-numeric: tabular-nums; }
.tick { fill: #898781; font-size: 11px; font-variant-numeric: tabular-nums; }
.grid { stroke: #e1e0d9; stroke-width: 1; }
.base { stroke: #c3c2b7; stroke-width: 1; }
.s0 { fill: #2a78d6; } .s1 { fill: #eb6834; } .s2 { fill: #1baf7a; }
@media (prefers-color-scheme: dark) {
  .bg { fill: #1a1a19; }
  .title, .label { fill: #ffffff; }
  .sub, .value { fill: #c3c2b7; }
  .grid { stroke: #2c2c2a; }
  .base { stroke: #383835; }
  .s0 { fill: #3987e5; } .s1 { fill: #d95926; } .s2 { fill: #199e70; }
}
</style>
<rect class="bg" width="880" height="650" rx="8"/>
<text class="title" x="24" y="32">How many times slower than native Go</text>
<text class="sub" x="24" y="52">AMD Ryzen 9 9900X3D 12-Core Processor, linux/amd64. Median time of each workload divided by Go&#39;s; log scale, shorter is better.</text>
<rect class="s0" x="24" y="70" width="12" height="12" rx="2"/><text class="label" x="42" y="80">Luart (no JIT)</text>
<rect class="s1" x="162.39999999999998" y="70" width="12" height="12" rx="2"/><text class="label" x="180.39999999999998" y="80">Luart (JIT)</text>
<rect class="s2" x="281" y="70" width="12" height="12" rx="2"/><text class="label" x="299" y="80">go-lua</text>
<line class="base" x1="220.0" x2="220.0" y1="98" y2="612"/><text class="tick" x="220.0" y="630" text-anchor="middle">1×</text>
<line class="grid" x1="286.5" x2="286.5" y1="98" y2="612"/><text class="tick" x="286.5" y="630" text-anchor="middle">2×</text>
<line class="grid" x1="374.4" x2="374.4" y1="98" y2="612"/><text class="tick" x="374.4" y="630" text-anchor="middle">5×</text>
<line class="grid" x1="440.8" x2="440.8" y1="98" y2="612"/><text class="tick" x="440.8" y="630" text-anchor="middle">10×</text>
<line class="grid" x1="507.3" x2="507.3" y1="98" y2="612"/><text class="tick" x="507.3" y="630" text-anchor="middle">20×</text>
<line class="grid" x1="595.2" x2="595.2" y1="98" y2="612"/><text class="tick" x="595.2" y="630" text-anchor="middle">50×</text>
<line class="grid" x1="661.6" x2="661.6" y1="98" y2="612"/><text class="tick" x="661.6" y="630" text-anchor="middle">100×</text>
<line class="grid" x1="728.1" x2="728.1" y1="98" y2="612"/><text class="tick" x="728.1" y="630" text-anchor="middle">200×</text>
<line class="grid" x1="816.0" x2="816.0" y1="98" y2="612"/><text class="tick" x="816.0" y="630" text-anchor="middle">500×</text>
<text class="label" x="208" y="121.0" text-anchor="end" dominant-baseline="middle">fib(25), recursive calls</text>
<path class="s0" d="M220.0 104.0H526.9Q530.9 104.0 530.9 108.0V110.0Q530.9 114.0 526.9 114.0H220.0Z"><title>Luart (no JIT): 26× slower</title></path><text class="value" x="535.9" y="109.0" text-anchor="start" dominant-baseline="middle">26×</text>
<path class="s1" d="M220.0 116.0H406.4Q410.4 116.0 410.4 120.0V122.0Q410.4 126.0 406.4 126.0H220.0Z"><title>Luart (JIT): 7.3× slower</title></path><text class="value" x="415.4" y="121.0" text-anchor="start" dominant-baseline="middle">7.3×</text>
<path class="s2" d="M220.0 128.0H575.3Q579.3 128.0 579.3 132.0V134.0Q579.3 138.0 575.3 138.0H220.0Z"><title>go-lua: 42× slower</title></path><text class="value" x="584.3" y="133.0" text-anchor="start" dominant-baseline="middle">42×</text>
<text class="label" x="208" y="173.0" text-anchor="end" dominant-baseline="middle">numeric loop, 1M iterations</text>
<path class="s0" d="M220.0 156.0H445.0Q449.0 156.0 449.0 160.0V162.0Q449.0 166.0 445.0 166.0H220.0Z"><title>Luart (no JIT): 11× slower</title></path><text class="value" x="454.0" y="161.0" text-anchor="start" dominant-baseline="middle">11×</text>
<path class="s1" d="M220.0 168.0H235.4Q239.4 168.0 239.4 172.0V174.0Q239.4 178.0 235.4 178.0H220.0Z"><title>Luart (JIT): 1.2× slower</title></path><text class="value" x="244.4" y="173.0" text-anchor="start" dominant-baseline="middle">1.2×</text>
<path class="s2" d="M220.0 180.0H741.4Q745.4 180.0 745.4 184.0V186.0Q745.4 190.0 741.4 190.0H220.0Z"><title>go-lua: 239× slower</title></path><text class="value" x="750.4" y="185.0" text-anchor="start" dominant-baseline="middle">239×</text>
<text class="label" x="208" y="225.0" text-anchor="end" dominant-baseline="middle">array fill and sum, 100k</text>
<path class="s0" d="M220.0 208.0H387.3Q391.3 208.0 391.3 212.0V214.0Q391.3 218.0 387.3 218.0H220.0Z"><title>Luart (no JIT): 6.0× slower</title></path><text class="value" x="396.3" y="213.0" text-anchor="start" dominant-baseline="middle">6.0×</text>
<path class="s1" d="M220.0 220.0H306.5Q310.5 220.0 310.5 224.0V226.0Q310.5 230.0 306.5 230.0H220.0Z"><title>Luart (JIT): 2.6× slower</title></path><text class="value" x="315.5" y="225.0" text-anchor="start" dominant-baseline="middle">2.6×</text>
<path class="s2" d="M220.0 232.0H467.8Q471.8 232.0 471.8 236.0V238.0Q471.8 242.0 467.8 242.0H220.0Z"><title>go-lua: 14× slower</title></path><text class="value" x="476.8" y="237.0" text-anchor="start" dominant-baseline="middle">14×</text>
<text class="label" x="208" y="277.0" text-anchor="end" dominant-baseline="middle">records, 10k tables</text>
<path class="s0" d="M220.0 260.0H434.7Q438.7 260.0 438.7 264.0V266.0Q438.7 270.0 434.7 270.0H220.0Z"><title>Luart (no JIT): 9.8× slower</title></path><text class="value" x="443.7" y="265.0" text-anchor="start" dominant-baseline="middle">9.8×</text>
<path class="s1" d="M220.0 272.0H405.1Q409.1 272.0 409.1 276.0V278.0Q409.1 282.0 405.1 282.0H220.0Z"><title>Luart (JIT): 7.2× slower</title></path><text class="value" x="414.1" y="277.0" text-anchor="start" dominant-baseline="middle">7.2×</text>
<path class="s2" d="M220.0 284.0H552.8Q556.8 284.0 556.8 288.0V290.0Q556.8 294.0 552.8 294.0H220.0Z"><title>go-lua: 34× slower</title></path><text class="value" x="561.8" y="289.0" text-anchor="start" dominant-baseline="middle">34×</text>
<text class="label" x="208" y="329.0" text-anchor="end" dominant-baseline="middle">closures, 100k</text>
<path class="s0" d="M220.0 312.0H524.0Q528.0 312.0 528.0 316.0V318.0Q528.0 322.0 524.0 322.0H220.0Z"><title>Luart (no JIT): 25× slower</title></path><text class="value" x="533.0" y="317.0" text-anchor="start" dominant-baseline="middle">25×</text>
<path class="s1" d="M220.0 324.0H508.0Q512.0 324.0 512.0 328.0V330.0Q512.0 334.0 508.0 334.0H220.0Z"><title>Luart (JIT): 21× slower</title></path><text class="value" x="517.0" y="329.0" text-anchor="start" dominant-baseline="middle">21×</text>
<path class="s2" d="M220.0 336.0H579.0Q583.0 336.0 583.0 340.0V342.0Q583.0 346.0 579.0 346.0H220.0Z"><title>go-lua: 44× slower</title></path><text class="value" x="588.0" y="341.0" text-anchor="start" dominant-baseline="middle">44×</text>
<text class="label" x="208" y="381.0" text-anchor="end" dominant-baseline="middle">sort 10k with comparator</text>
<path class="s0" d="M220.0 364.0H315.8Q319.8 364.0 319.8 368.0V370.0Q319.8 374.0 315.8 374.0H220.0Z"><title>Luart (no JIT): 2.8× slower</title></path><text class="value" x="324.8" y="369.0" text-anchor="start" dominant-baseline="middle">2.8×</text>
<path class="s1" d="M220.0 376.0H313.9Q317.9 376.0 317.9 380.0V382.0Q317.9 386.0 313.9 386.0H220.0Z"><title>Luart (JIT): 2.8× slower</title></path><text class="value" x="322.9" y="381.0" text-anchor="start" dominant-baseline="middle">2.8×</text>
<path class="s2" d="M220.0 388.0H414.5Q418.5 388.0 418.5 392.0V394.0Q418.5 398.0 414.5 398.0H220.0Z"><title>go-lua: 7.9× slower</title></path><text class="value" x="423.5" y="393.0" text-anchor="start" dominant-baseline="middle">7.9×</text>
<text class="label" x="208" y="433.0" text-anchor="end" dominant-baseline="middle">string build, 10k pieces</text>
<path class="s0" d="M220.0 416.0H279.5Q283.5 416.0 283.5 420.0V422.0Q283.5 426.0 279.5 426.0H220.0Z"><title>Luart (no JIT): 1.9× slower</title></path><text class="value" x="288.5" y="421.0" text-anchor="start" dominant-baseline="middle">1.9×</text>
<path class="s1" d="M220.0 428.0H262.4Q266.4 428.0 266.4 432.0V434.0Q266.4 438.0 262.4 438.0H220.0Z"><title>Luart (JIT): 1.6× slower</title></path><text class="value" x="271.4" y="433.0" text-anchor="start" dominant-baseline="middle">1.6×</text>
<path class="s2" d="M220.0 440.0H704.7Q708.7 440.0 708.7 444.0V446.0Q708.7 450.0 704.7 450.0H220.0Z"><title>go-lua: 163× slower</title></path><text class="value" x="713.7" y="445.0" text-anchor="start" dominant-baseline="middle">163×</text>
<text class="label" x="208" y="485.0" text-anchor="end" dominant-baseline="middle">calls into Go, 100k</text>
<path class="s0" d="M220.0 468.0H412.6Q416.6 468.0 416.6 472.0V474.0Q416.6 478.0 412.6 478.0H220.0Z"><title>Luart (no JIT): 7.8× slower</title></path><text class="value" x="421.6" y="473.0" text-anchor="start" dominant-baseline="middle">7.8×</text>
<path class="s1" d="M220.0 480.0H382.3Q386.3 480.0 386.3 484.0V486.0Q386.3 490.0 382.3 490.0H220.0Z"><title>Luart (JIT): 5.7× slower</title></path><text class="value" x="391.3" y="485.0" text-anchor="start" dominant-baseline="middle">5.7×</text>
<path class="s2" d="M220.0 492.0H524.3Q528.3 492.0 528.3 496.0V498.0Q528.3 502.0 524.3 502.0H220.0Z"><title>go-lua: 25× slower</title></path><text class="value" x="533.3" y="497.0" text-anchor="start" dominant-baseline="middle">25×</text>
<text class="label" x="208" y="537.0" text-anchor="end" dominant-baseline="middle">plasma frame</text>
<path class="s0" d="M220.0 520.0H362.8Q366.8 520.0 366.8 524.0V526.0Q366.8 530.0 362.8 530.0H220.0Z"><title>Luart (no JIT): 4.6× slower</title></path><text class="value" x="371.8" y="525.0" text-anchor="start" dominant-baseline="middle">4.6×</text>
<path class="s1" d="M220.0 532.0H305.2Q309.2 532.0 309.2 536.0V538.0Q309.2 542.0 305.2 542.0H220.0Z"><title>Luart (JIT): 2.5× slower</title></path><text class="value" x="314.2" y="537.0" text-anchor="start" dominant-baseline="middle">2.5×</text>
<path class="s2" d="M220.0 544.0H472.6Q476.6 544.0 476.6 548.0V550.0Q476.6 554.0 472.6 554.0H220.0Z"><title>go-lua: 15× slower</title></path><text class="value" x="481.6" y="549.0" text-anchor="start" dominant-baseline="middle">15×</text>
<text class="label" x="208" y="589.0" text-anchor="end" dominant-baseline="middle">particles frame</text>
<path class="s0" d="M220.0 572.0H588.5Q592.5 572.0 592.5 576.0V578.0Q592.5 582.0 588.5 582.0H220.0Z"><title>Luart (no JIT): 49× slower</title></path><text class="value" x="597.5" y="577.0" text-anchor="start" dominant-baseline="middle">49×</text>
<path class="s1" d="M220.0 584.0H482.5Q486.5 584.0 486.5 588.0V590.0Q486.5 594.0 482.5 594.0H220.0Z"><title>Luart (JIT): 16× slower</title></path><text class="value" x="491.5" y="589.0" text-anchor="start" dominant-baseline="middle">16×</text>
<path class="s2" d="M220.0 596.0H740.0Q744.0 596.0 744.0 600.0V602.0Q744.0 606.0 740.0 606.0H220.0Z"><title>go-lua: 236× slower</title></path><text class="value" x="749.0" y="601.0" text-anchor="start" dominant-baseline="middle">236×</text>
</svg>
